<svg fill="none" height="220" viewBox="0 0 220 220" width="220" xmlns="http://www.w3.org/2000/svg"><path d="m200.169 186.414h-179.6706c-8.5299 0-15.44469-6.914-15.44469-15.444v-142.1908c0-8.5299 6.91479-15.4447 15.44469-15.4447h179.6706c8.53 0 15.445 6.9148 15.445 15.4447v142.1908c0 8.53-6.915 15.444-15.445 15.444z" fill="#e7e3e6"/><g fill="#85bd57"><path d="m84.1241 72.2536c-.5804.4755-.8717 1.1095-.8717 1.8977 0 .7883.3555 1.4137 1.0645 1.8806.7111.4627 2.3518 1.011 4.9222 1.645 2.5681.634 4.5644 1.5808 5.9845 2.8488 1.4201 1.2637 2.1312 3.11 2.1312 5.539s-.9103 4.3996-2.7309 5.9075c-1.8207 1.5122-4.2175 2.2661-7.1862 2.2661-4.2881 0-8.15-1.585-11.5856-4.7636l3.6027-4.4167c2.9194 2.5575 5.6182 3.834 8.0986 3.834 1.1095 0 1.9813-.2356 2.6153-.7154.6318-.4798.9489-1.1224.9489-1.9363 0-.814-.3363-1.4608-1.0067-1.9363-.6726-.4798-2.0027-.9639-3.9905-1.4565-3.1529-.7454-5.4576-1.7222-6.9162-2.9216-1.4608-1.2038-2.1891-3.0887-2.1891-5.659 0-2.5704.9232-4.5537 2.7696-5.946 1.8463-1.3966 4.151-2.0948 6.9162-2.0948 1.8078 0 3.6156.3127 5.4234.9339 1.8078.6168 3.3842 1.495 4.7273 2.6345l-3.0608 4.4167c-2.3497-1.7821-4.7787-2.6732-7.2847-2.6732-1.0068.0002-1.8015.2358-2.382.7156z"/><path d="m108.842 72.2536c-.581.4755-.872 1.1095-.872 1.8977 0 .7883.356 1.4137 1.065 1.8806.711.4627 2.352 1.011 4.922 1.645 2.568.634 4.564 1.5808 5.984 2.8488 1.42 1.2637 2.132 3.11 2.132 5.539s-.911 4.3996-2.731 5.9075c-1.821 1.5122-4.218 2.2661-7.187 2.2661-4.288 0-8.15-1.585-11.585-4.7636l3.603-4.4167c2.919 2.5575 5.618 3.834 8.098 3.834 1.11 0 1.981-.2356 2.615-.7154.632-.4798.949-1.1224.949-1.9363 0-.814-.336-1.4608-1.006-1.9363-.673-.4798-2.003-.9639-3.991-1.4565-3.153-.7454-5.457-1.7222-6.916-2.9216-1.461-1.2038-2.189-3.0887-2.189-5.659 0-2.5704.923-4.5537 2.769-5.946 1.847-1.3966 4.151-2.0948 6.917-2.0948 1.807 0 3.615.3127 5.423.9339 1.808.6168 3.384 1.495 4.727 2.6345l-3.06 4.4167c-2.35-1.7821-4.779-2.6732-7.285-2.6732-1.007.0002-1.802.2358-2.382.7156z"/><path d="m127.226 93.9297v-27.0825h6.042v21.6977h11.548v5.3848z"/></g><path d="m215.614 44.1564v-15.3771c0-8.53-6.915-15.4448-15.445-15.4448h-179.6707c-8.5298 0-15.44459 6.9148-15.44459 15.4448v15.3771z" fill="#53b1e2"/><path d="m75.5241 46.9977h-55.3327v-11.9291c0-2.9633 2.4022-5.3655 5.3655-5.3655h44.6018c2.9632 0 5.3654 2.4023 5.3654 5.3655z" fill="#e7e3e6"/><path d="m130.857 44.1566h-55.3331v-9.088c0-2.9633 2.4023-5.3655 5.3655-5.3655h44.6016c2.963 0 5.366 2.4023 5.366 5.3655z" fill="#d2d2d2"/><path d="m178.02 35.9904c3.269 0 5.92-2.6504 5.92-5.92 0-3.2695-2.651-5.92-5.92-5.92-3.27 0-5.92 2.6505-5.92 5.92 0 3.2696 2.65 5.92 5.92 5.92z" fill="#e7e3e6"/><path d="m159.967 35.9904c3.269 0 5.92-2.6504 5.92-5.92 0-3.2695-2.651-5.92-5.92-5.92-3.27 0-5.92 2.6505-5.92 5.92 0 3.2696 2.65 5.92 5.92 5.92z" fill="#e7e3e6"/><path d="m168.459 160.435 10.154 45.564-20.539-11.218v-34.346z" fill="#656766"/><path d="m147.688 160.435-10.153 45.564 20.539-11.218v-34.346z" fill="#4e4c4d"/><path d="m183.089 155.995c0 8.087-6.556 14.643-14.643 14.643l-.027.026c-5.718 5.719-14.989 5.719-20.707 0l-.027-.026c-8.087 0-14.643-6.556-14.643-14.643v-.039c-5.711-5.711-5.711-14.971 0-20.682v-.058c0-8.077 6.548-14.624 14.624-14.624h.059c5.711-5.711 14.97-5.711 20.681 0h.04c8.087 0 14.643 6.556 14.643 14.643 5.732 5.733 5.732 15.027 0 20.76z" fill="#ec6e62"/><path d="m158.074 160.435c8.176 0 14.804-6.628 14.804-14.804s-6.628-14.804-14.804-14.804-14.804 6.628-14.804 14.804 6.628 14.804 14.804 14.804z" fill="#ffc966"/><path d="m108.41 116.309h-82.9994v9.76h82.9994z" fill="#d2d2d2"/><path d="m108.41 135.249h-82.9994v9.76h82.9994z" fill="#d2d2d2"/><path d="m74.3365 154.189h-48.9259v9.76h48.9259z" fill="#d2d2d2"/></svg>